# xmcd
#
# Track frame offsets: 
#        150
#        14872
#        33284
#        46929
#        61812
#        74005
#        85190
#        99195
#        111937
#        128880
#
# Disc length: 1854 seconds
#
# Revision: 2
# Processed by: cddbd v1.5.2PL0 Copyright (c) Steve Scherf et al.
# Submitted via: ExactAudioCopy v1.0b1
#
DISCID=84073c0a
DTITLE=Johnny Cash - Look At Them Beans
DYEAR=1975
DGENRE=Country
TTITLE0=Texas-1947
TTITLE1=What Have You Got Planned Tonight,Diana
TTITLE2=Look At Them Beans
TTITLE3=No Charge
TTITLE4=I Hardly Ever Sing Beer Drinking Songs
TTITLE5=Down The Road I Go
TTITLE6=I Never Met A Man Like You Before
TTITLE7=All Around Cowboy
TTITLE8=Gone
TTITLE9=Down At drippin' Springs
EXTD=
EXTT0=
EXTT1=
EXTT2=
EXTT3=
EXTT4=
EXTT5=
EXTT6=
EXTT7=
EXTT8=
EXTT9=
PLAYORDER=
